<svg width="2208" height="2209" xmlns="http://www.w3.org/2000/svg" xmlns:xlink="http://www.w3.org/1999/xlink" xml:space="preserve" overflow="hidden"><defs><filter id="fx0" x="-10%" y="-10%" width="120%" height="120%" filterUnits="userSpaceOnUse" primitiveUnits="userSpaceOnUse"><feComponentTransfer color-interpolation-filters="sRGB"><feFuncR type="discrete" tableValues="0.0392157 0.0392157"/><feFuncG type="discrete" tableValues="0.278431 0.278431"/><feFuncB type="discrete" tableValues="0.576471 0.576471"/><feFuncA type="linear" slope="1" intercept="0"/></feComponentTransfer><feGaussianBlur stdDeviation="0 0"/></filter><clipPath id="clip1"><rect x="1" y="0" width="870" height="509"/></clipPath></defs><g transform="translate(-1096 -133)"><g clip-path="url(#clip1)" filter="url(#fx0)" transform="translate(1782 986)"><g><path d="M322 13.028 538.225 13.028 538.225 118.958 456.45 118.958 456.45 196.659 532.987 196.659 532.987 297.932 456.45 297.932 456.45 389.893 546.374 389.893 546.374 495.823 322 495.823ZM715.29 3.13345C752.495 3.13345 783.398 10.443 807.999 25.0619 832.601 39.6809 848.763 57.9005 856.487 79.7206 864.211 101.541 868.073 134.72 868.073 179.257L868.073 229.835 733.624 229.835 733.624 142.125C733.624 119.208 732.646 105.543 730.689 101.131 728.732 96.7185 724.569 94.5124 718.2 94.5124 710.928 94.5124 706.248 97.2694 704.161 102.784 702.074 108.298 701.03 122.711 701.03 146.022L701.03 364.866C701.03 387.183 702.067 401.008 704.141 406.34 706.214 411.672 710.61 414.339 717.327 414.339 723.805 414.339 728.141 411.61 730.334 406.154 732.528 400.697 733.624 385.431 733.624 360.355L733.624 295.313 868.073 295.313 868.073 319.495C868.073 368.779 864.466 404.107 857.251 425.477 850.036 446.847 834.097 465.563 809.431 481.625 784.766 497.686 754.55 505.717 718.782 505.717 681.82 505.717 651.157 498.916 626.792 485.312 602.427 471.709 586.3 452.924 578.413 428.957 570.525 404.991 566.581 369.562 566.581 322.669L566.581 185.018C566.581 150.581 567.778 124.639 570.171 107.19 572.564 89.7409 579.84 72.7423 591.997 56.1938 604.155 39.6453 620.911 26.6648 642.266 17.2523 663.62 7.83972 687.962 3.13345 715.29 3.13345ZM142.4 3.13345C175.079 3.13345 203.19 8.5347 226.733 19.3371 250.277 30.1396 265.922 43.8552 273.669 60.484 281.416 77.1128 285.289 104.558 285.289 142.821L285.289 167.266 159.57 167.266 159.57 126.524C159.57 111.419 158.553 102.307 156.519 99.1891 154.485 96.0713 151.137 94.5124 146.474 94.5124 141.433 94.5124 137.457 96.8291 134.545 101.463 131.633 106.096 130.178 113.974 130.178 125.096 130.178 139.953 132.304 151.548 136.557 159.882 139.71 165.669 150.232 173.85 168.123 184.427 223.48 217.282 258.467 244.422 273.084 265.848 288.011 287.729 295.474 322.287 295.474 369.522 295.474 403.941 291.298 429.606 282.945 446.518 274.592 463.431 258.631 477.525 235.064 488.802 211.496 500.079 184.294 505.717 153.459 505.717 119.583 505.717 90.5457 499.237 66.3474 486.276 42.1492 473.315 26.2699 456.72 18.7095 436.49 11.1492 416.26 7.36902 388.117 7.36902 352.061L7.36902 315.393 133.088 315.393 133.088 378.544C133.088 395.141 134.24 405.256 136.546 408.889 138.851 412.522 142.937 414.339 148.803 414.339 154.784 414.339 159.334 411.827 162.455 406.804 165.576 401.781 167.137 393.525 167.137 382.036 167.137 355.805 164.93 339.605 160.516 333.436 150.864 324.008 131.026 309.446 101.003 289.747 70.2223 269.358 49.6913 254.426 39.4103 244.952 29.1293 235.477 20.5883 222.314 13.7873 205.464 6.98632 188.614 3.58583 167.248 3.58583 141.366 3.58583 104.228 8.45958 76.8354 18.2071 59.1881 27.9546 41.5407 43.6043 27.7864 65.1561 17.9252 86.7079 8.06406 112.456 3.13345 142.4 3.13345Z" stroke="#FFFFFF" stroke-width="5" stroke-linejoin="round" stroke-miterlimit="10" fill="#42B184" fill-rule="evenodd"/></g></g><path d="M2089.52 984.551 2305.75 984.551 2305.75 1090.48 2223.97 1090.48 2223.97 1168.18 2300.51 1168.18 2300.51 1269.45 2223.97 1269.45 2223.97 1361.42 2313.9 1361.42 2313.9 1467.35 2089.52 1467.35ZM2482.81 974.656C2520.02 974.656 2550.92 981.966 2575.52 996.585 2600.12 1011.2 2616.29 1029.42 2624.01 1051.24 2631.73 1073.06 2635.6 1106.24 2635.6 1150.78L2635.6 1201.36 2501.15 1201.36 2501.15 1113.65C2501.15 1090.73 2500.17 1077.07 2498.21 1072.65 2496.25 1068.24 2492.09 1066.04 2485.72 1066.04 2478.45 1066.04 2473.77 1068.79 2471.68 1074.31 2469.6 1079.82 2468.55 1094.23 2468.55 1117.54L2468.55 1336.39C2468.55 1358.71 2469.59 1372.53 2471.66 1377.86 2473.74 1383.2 2478.13 1385.86 2484.85 1385.86 2491.33 1385.86 2495.66 1383.13 2497.86 1377.68 2500.05 1372.22 2501.15 1356.95 2501.15 1331.88L2501.15 1266.84 2635.6 1266.84 2635.6 1291.02C2635.6 1340.3 2631.99 1375.63 2624.77 1397 2617.56 1418.37 2601.62 1437.09 2576.95 1453.15 2552.29 1469.21 2522.07 1477.24 2486.31 1477.24 2449.34 1477.24 2418.68 1470.44 2394.31 1456.83 2369.95 1443.23 2353.82 1424.45 2345.94 1400.48 2338.05 1376.51 2334.1 1341.08 2334.1 1294.19L2334.1 1156.54C2334.1 1122.1 2335.3 1096.16 2337.69 1078.71 2340.09 1061.26 2347.36 1044.27 2359.52 1027.72 2371.68 1011.17 2388.43 998.188 2409.79 988.775 2431.14 979.362 2455.48 974.656 2482.81 974.656ZM1909.92 974.656C1942.6 974.656 1970.71 980.057 1994.26 990.86 2017.8 1001.66 2033.44 1015.38 2041.19 1032.01 2048.94 1048.64 2052.81 1076.08 2052.81 1114.34L2052.81 1138.79 1927.09 1138.79 1927.09 1098.05C1927.09 1082.94 1926.08 1073.83 1924.04 1070.71 1922.01 1067.59 1918.66 1066.04 1914 1066.04 1908.96 1066.04 1904.98 1068.35 1902.07 1072.99 1899.16 1077.62 1897.7 1085.5 1897.7 1096.62 1897.7 1111.48 1899.83 1123.07 1904.08 1131.4 1907.23 1137.19 1917.75 1145.37 1935.65 1155.95 1991 1188.8 2025.99 1215.94 2040.61 1237.37 2055.53 1259.25 2063 1293.81 2063 1341.04 2063 1375.46 2058.82 1401.13 2050.47 1418.04 2042.11 1434.95 2026.15 1449.05 2002.59 1460.32 1979.02 1471.6 1951.82 1477.24 1920.98 1477.24 1887.11 1477.24 1858.07 1470.76 1833.87 1457.8 1809.67 1444.84 1793.79 1428.24 1786.23 1408.01 1778.67 1387.78 1774.89 1359.64 1774.89 1323.58L1774.89 1286.92 1900.61 1286.92 1900.61 1350.07C1900.61 1366.66 1901.76 1376.78 1904.07 1380.41 1906.37 1384.04 1910.46 1385.86 1916.33 1385.86 1922.31 1385.86 1926.86 1383.35 1929.98 1378.33 1933.1 1373.3 1934.66 1365.05 1934.66 1353.56 1934.66 1327.33 1932.45 1311.13 1928.04 1304.96 1918.39 1295.53 1898.55 1280.97 1868.53 1261.27 1837.74 1240.88 1817.21 1225.95 1806.93 1216.47 1796.65 1207 1788.11 1193.84 1781.31 1176.99 1774.51 1160.14 1771.11 1138.77 1771.11 1112.89 1771.11 1075.75 1775.98 1048.36 1785.73 1030.71 1795.48 1013.06 1811.13 999.309 1832.68 989.448 1854.23 979.587 1879.98 974.656 1909.92 974.656Z" stroke="#FFFFFF" stroke-width="5" stroke-linejoin="round" stroke-miterlimit="10" fill="#42B184" fill-rule="evenodd"/><text fill="#000000" fill-opacity="0" font-family="Arial,Arial_MSFontService,sans-serif" font-size="502.584" x="1771.11" y="1414.42">SEC</text><path d="M2200 727.332 1444.37 1237.5 2200 1747.67 2955.63 1237.5ZM2200 588 3162 1237.5 2200 1887 1238 1237.5Z" fill="#0A4793" fill-rule="evenodd"/><path d="M1238 1238 1444.37 1238 1444.37 1238 2200 1747.78 2200 1887Z" fill="#38B7C6" fill-rule="evenodd"/><path d="M2200 588 3162 1238 3162 1238 2955.63 1238 2200 727.439 2200 588.001Z" fill="#38B7C6" fill-rule="evenodd"/></g></svg>